<svg width="127" height="60" viewBox="0 0 127 60" fill="none" xmlns="http://www.w3.org/2000/svg">
<path d="M25.6377 3.58036C24.6865 3.79987 23.6377 4.70231 23.6377 5.28768C23.6377 5.50719 23.906 5.94621 24.2475 6.26329C24.7353 6.70231 25.1987 6.84865 26.6133 6.92182C28.6377 7.04378 29.5401 6.79987 30.1011 5.92182C31.1255 4.36085 28.3938 2.92182 25.6377 3.58036Z" fill="black"/>
<path d="M48.5154 7.94675C48.3935 8.21505 48.052 8.50773 47.7837 8.5809C47.5154 8.65407 47.2959 8.89798 47.2959 9.06871C47.2959 9.26383 47.0033 9.5809 46.6374 9.77602C46.2472 9.97115 44.5642 11.5321 42.8813 13.2638C40.3203 15.898 39.735 16.6053 39.3935 17.6785C38.9789 18.9224 38.9789 18.9711 39.4911 19.8004C39.9545 20.5321 40.1008 20.6297 40.6618 20.4833C41.4667 20.2882 41.735 20.0199 42.2959 18.9468C42.9301 17.7029 44.7106 15.2394 45.4179 14.6297C46.4911 13.7029 47.0764 13.4833 47.4423 13.8736C48.2959 14.7272 48.4667 18.9468 47.8081 23.215C47.6374 24.1663 47.4423 31.4346 47.3203 39.6785C47.1008 55.1175 47.1008 55.1663 48.1252 55.9955C48.5886 56.3858 49.4179 56.1419 49.7593 55.4833C49.9789 55.0931 49.9545 54.337 49.7593 52.5077C49.4423 49.9711 49.613 41.0687 50.2228 25.6541C50.613 15.7272 50.8081 13.2638 51.1008 13.1663C51.2472 13.1175 52.1008 13.7272 52.9789 14.5321C53.9057 15.3614 54.9789 16.0931 55.4911 16.2394C55.9789 16.3614 56.9545 16.8736 57.6618 17.3614C58.3691 17.8492 59.1496 18.215 59.3935 18.1663C60.5154 17.9711 59.7594 15.9468 58.174 14.8492C57.7594 14.5565 56.1252 13.0687 54.5398 11.5565C52.6862 9.75163 51.1984 8.53212 50.3447 8.11749C48.7837 7.36139 48.8325 7.36139 48.5154 7.94675Z" fill="black"/>
<path d="M65.8569 8.33708C64.1252 10.3371 63.9789 11.6054 63.7838 28.2151C63.7106 34.0444 63.5887 42.3615 63.4911 46.6785L63.3691 54.5078L64.2716 55.5078C64.7594 56.0688 65.3204 56.5078 65.5155 56.5078C66.0033 56.5078 67.7838 55.5566 67.7838 55.2883C67.7838 54.7273 70.2472 51.581 72.4911 49.2639C74.9545 46.7517 76.8813 45.2639 78.0033 44.9712L78.5643 44.8249L78.3935 48.581C78.1984 52.4346 78.3691 53.6785 79.1984 54.6054C79.735 55.2395 80.1252 55.142 80.8082 54.2395C81.3935 53.459 81.4423 53.1663 81.8082 47.7029C82.0033 44.5566 82.2716 40.5078 82.3935 38.7029C82.613 35.6785 82.7838 19.0444 82.7106 11.4346C82.6618 8.75171 82.5887 8.16635 82.2716 8.0444C81.8326 7.87366 79.9789 8.67854 79.9545 9.0444C79.9545 9.19074 79.9545 12.6542 79.9789 16.7517C80.0033 25.3859 79.4179 39.1907 79.0277 39.1907C78.9545 39.1907 78.0521 38.4103 77.0765 37.4834C76.0765 36.5322 75.1984 35.7761 75.1252 35.7761C75.0277 35.7761 74.5887 35.4103 74.1252 34.9712C72.3935 33.4102 70.7594 32.142 68.8082 30.8981C67.613 30.142 66.8082 29.459 66.8082 29.2151C66.8569 24.9468 67.3935 14.6054 67.6618 12.7761C68.1252 9.70293 68.1252 9.09318 67.6618 8.21513C67.174 7.26391 66.7838 7.2883 65.8569 8.33708ZM68.8326 34.9468C69.2716 35.1663 70.0521 35.7029 70.5887 36.1176C71.4667 36.7761 72.1008 37.3371 74.4179 39.4834C74.8082 39.8493 75.4423 40.3859 75.8326 40.6542C76.2472 40.9468 76.5643 41.3127 76.5643 41.4834C76.5643 41.8493 75.6374 43.1176 74.5155 44.2639C72.7838 46.0688 72.3448 46.4834 71.1008 47.7273C70.4667 48.3371 69.3447 49.459 68.5643 50.2151C67.3935 51.4103 67.1496 51.5566 66.9545 51.2151C66.6374 50.6298 66.7106 39.7273 67.0521 37.2395C67.4667 34.1907 67.4423 34.2395 68.8326 34.9468Z" fill="black"/>
<path d="M88.5885 8.38533C88.0519 8.89752 87.491 9.75118 87.3202 10.2878C86.8568 11.8487 86.6129 19.117 86.4178 37.3853L86.2471 54.5073L87.0276 55.5804C87.6861 56.5073 87.9056 56.6536 88.4666 56.5561C89.4422 56.3609 90.4422 55.5317 90.9788 54.4829C92.0763 52.3609 97.8812 46.3365 99.8568 45.3122C101.491 44.4585 101.589 44.6536 101.198 48.2146C100.881 51.2634 100.954 52.2634 101.613 54.0195C101.954 54.9219 102.101 55.0683 102.637 54.9951C103.076 54.9463 103.393 54.6292 103.808 53.8243C104.393 52.678 104.564 50.6536 105.369 35.1414C105.71 28.7024 105.564 8.58045 105.174 8.1902C104.808 7.82435 103.906 8.06825 103.223 8.7024C102.686 9.1902 102.686 9.26337 102.662 18.2878C102.662 26.7024 102.393 34.2146 101.979 37.8975L101.808 39.4097L100.101 37.7756C99.1739 36.8487 98.0763 35.8731 97.6617 35.5561C97.2715 35.2634 96.369 34.4829 95.6861 33.8487C95.0032 33.2146 93.6129 32.1658 92.5885 31.5073C89.6617 29.6536 89.8568 30.1902 89.9056 24.1414C89.9544 21.2634 90.1007 17.5317 90.2227 15.8244C90.808 8.84874 90.808 8.82435 90.3446 8.14143C90.1251 7.77557 89.8324 7.48289 89.7349 7.48289C89.6129 7.48289 89.1007 7.89752 88.5885 8.38533ZM91.6373 34.9707C92.9788 35.7268 94.6617 37.0683 96.6129 38.9219C97.3934 39.6292 98.369 40.4585 98.808 40.7268C99.2471 40.9707 99.6617 41.239 99.7105 41.2878C99.9056 41.4829 97.2959 44.3365 93.6617 47.9219L89.8568 51.6536L89.6373 48.1658C89.3934 44.0683 89.9056 34.3122 90.3934 34.3122C90.4422 34.3122 91.0032 34.6048 91.6373 34.9707Z" fill="black"/>
<path d="M33.272 8.23911C32.3452 8.89765 29.394 12.8245 27.0525 16.5074C26.0769 18.044 24.9794 19.6537 24.6379 20.0684C24.2964 20.483 23.6379 21.3367 23.2233 21.9464C22.7842 22.5806 22.3452 23.0928 22.2233 23.0928C22.1013 23.0928 21.8574 19.9464 21.6867 16.1172C21.3452 8.72692 21.2964 8.45863 20.1257 8.45863C19.8086 8.45863 19.3452 8.65375 19.0769 8.89765C18.6135 9.2879 18.5647 9.7757 18.2964 17.1172C18.1501 21.4098 17.9306 29.5806 17.7842 35.2879C17.6623 40.9952 17.4916 47.5318 17.394 49.8245C17.2233 54.6294 17.3208 55.3611 18.1989 55.7513C18.7111 55.9952 18.9794 55.9464 19.833 55.5562L20.833 55.0684L20.7599 48.483C20.6379 40.7025 20.6623 40.6781 23.0769 37.1903C27.3208 31.1416 27.7599 30.605 29.0525 29.7757C30.516 28.8245 30.9794 28.8001 31.2233 29.6781C31.4672 30.5806 31.4672 38.4586 31.2233 39.3367C31.1013 39.7513 31.1013 40.6781 31.2233 41.483C31.394 42.483 31.3452 43.7025 31.0769 45.7269C30.4428 50.5562 30.6379 52.7513 31.7599 53.9952C32.5647 54.8976 33.0525 54.7025 33.5891 53.2635C34.272 51.3855 34.4184 47.7269 34.0769 39.483C33.6135 28.605 33.6867 25.1416 34.4916 19.5074C34.7111 18.0684 34.9306 15.3855 35.0038 13.5806C35.0769 11.7757 35.2477 9.87326 35.394 9.38546C35.8574 7.80009 34.7355 7.19033 33.272 8.23911ZM30.833 18.5806C31.5403 19.2635 31.5647 19.6294 31.0525 21.4098C30.2233 24.1659 29.4672 25.2635 25.5403 29.483C24.1501 30.9464 22.7111 32.6294 22.3452 33.2391C21.955 33.8245 21.516 34.3123 21.3696 34.3123C21.1989 34.3123 21.1745 33.2879 21.2964 31.2147C21.4428 28.2879 21.4916 28.0684 22.1013 27.4342C22.4672 27.044 22.8818 26.7513 23.0525 26.7513C23.1989 26.7513 23.394 26.5074 23.4916 26.1903C23.5647 25.8733 24.1745 24.922 24.8574 24.044C25.516 23.1903 26.5647 21.7269 27.1745 20.8001C28.4184 18.9708 29.3696 17.9708 29.9062 17.9708C30.1013 17.9708 30.516 18.2391 30.833 18.5806Z" fill="black"/>
<path d="M110.296 8.65382C109.15 9.80016 108.882 11.0197 109.223 13.4099C109.613 16.288 110.077 28.5319 110.15 38.3367C110.199 42.8977 110.247 47.5075 110.247 48.5806C110.272 49.6538 110.247 51.3611 110.199 52.3611C110.125 53.9465 110.199 54.3124 110.686 55.1172C111.442 56.3367 112.003 56.6294 112.516 56.0441C113.369 55.1172 113.467 53.166 113.296 39.5563C113.199 30.7758 113.223 26.2636 113.394 26.0197C113.54 25.7758 113.638 25.7514 113.638 25.9465C113.638 26.1172 113.882 26.2636 114.199 26.2636C115.296 26.2636 119.321 29.5806 121.491 32.2392C122.15 33.0441 122.784 33.8489 122.93 34.0197C123.101 34.2392 123.125 37.0197 123.028 42.9221C122.833 51.7026 122.882 52.4831 123.784 54.5806C124.174 55.5075 125.467 56.3611 126.223 56.2148C126.638 56.1416 126.686 55.8245 126.76 52.4831C126.808 50.4587 126.662 45.4587 126.442 41.3611C126.003 32.3611 125.979 26.3855 126.369 20.3855C126.54 17.9221 126.686 14.3367 126.686 12.4587C126.686 9.38552 126.638 8.9465 126.223 8.48309C125.662 7.84894 124.589 7.82455 124.223 8.38552C123.589 9.40992 122.906 14.0928 122.906 17.4099C122.906 18.5319 122.808 19.4343 122.711 19.4343C122.613 19.4343 122.077 18.9709 121.54 18.3855C120.296 17.0928 114.955 10.8977 114.052 9.72699C113.686 9.26358 113.028 8.72699 112.589 8.58065C112.174 8.40992 111.638 8.21479 111.418 8.11723C111.15 7.99528 110.784 8.1904 110.296 8.65382ZM115.711 17.0928C116.394 17.8002 117.491 18.9709 118.174 19.7026C118.857 20.4343 120.028 21.5075 120.808 22.1172C122.467 23.4343 122.906 24.166 122.906 25.6294C122.906 26.2392 123.028 27.0197 123.15 27.3855C123.296 27.7514 123.345 28.2148 123.272 28.4099C123.174 28.6782 122.638 28.2392 121.369 26.8733C120.418 25.8246 119.052 24.605 118.345 24.1416C117.638 23.7026 117.052 23.2392 117.052 23.1172C117.052 22.9953 116.857 22.8489 116.638 22.7758C116.394 22.6782 115.491 22.2392 114.638 21.7514L113.052 20.8977L113.125 18.3855C113.15 17.0197 113.247 15.8246 113.321 15.7026C113.564 15.288 114.54 15.8489 115.711 17.0928Z" fill="black"/>
<path d="M11.4909 8.62929C11.1982 8.75124 10.1738 10.2147 8.90555 12.361C8.53969 12.9708 8.14945 13.6293 8.0275 13.8244C7.90555 14.0195 7.05189 15.5073 6.10067 17.1171C5.14945 18.7268 4.10067 20.361 3.75921 20.7512C3.41774 21.1415 3.14945 21.5317 3.14945 21.6293C3.14945 21.7268 2.53969 22.5073 1.7836 23.3366C0.539693 24.7512 0.417742 24.9464 0.564083 25.7512C0.832376 27.5561 0.734815 38.2878 0.368961 43.7025C-0.118844 50.8244 -0.118844 52.9951 0.344571 54.3366C0.807985 55.6293 1.2714 56.0195 2.32018 56.0195C3.00311 56.0195 3.14945 55.8976 3.39335 55.1415C3.61286 54.5073 3.61286 53.9951 3.41774 53.2147C3.05189 51.8 3.07628 48.8976 3.5153 42.7512C3.85677 37.7025 3.85677 37.6537 4.66164 36.3366C5.66164 34.6781 7.85677 31.9951 8.58847 31.5317C8.88116 31.361 9.41774 31.1415 9.7836 31.0439C10.7104 30.8244 10.9299 31.361 11.247 34.6293C11.4909 36.9464 11.4665 37.9464 11.0763 41.2634C10.5153 46.0927 10.3202 53.4829 10.7348 53.9708C11.1007 54.4342 12.4177 54.4098 13.1007 53.922L13.6373 53.5561V31.1659C13.6373 10.9464 13.5885 8.75124 13.247 8.6049C12.808 8.43417 11.9543 8.43417 11.4909 8.62929ZM10.3202 17.2634C10.5153 18.239 10.5153 21.5317 10.3202 23.6049C10.1982 24.922 10.0275 25.361 9.41774 26.0439C9.0275 26.5073 7.75921 27.9464 6.61286 29.2634C5.12506 30.9464 4.44213 31.5561 4.2714 31.3854C3.80799 30.922 3.92994 25.8488 4.46652 24.3122C5.05189 22.5317 6.66164 19.7756 7.83238 18.5805C8.34457 18.0439 8.75921 17.5073 8.75921 17.3854C8.75921 17.1171 9.5153 16.5317 9.88116 16.5073C10.0275 16.5073 10.2226 16.8488 10.3202 17.2634Z" fill="black"/>
<path d="M54.8086 22.0442C54.0769 22.849 54.0281 23.7027 54.6378 24.8003C55.2232 25.849 56.15 26.2881 56.6378 25.8003C56.8086 25.6295 56.9305 24.7515 56.9305 23.6295V21.7515L56.0525 21.6783C55.4671 21.6295 55.0769 21.7515 54.8086 22.0442Z" fill="black"/>
</svg>
